<?xml version="1.0" encoding="utf-8"?>
<!DOCTYPE svg PUBLIC "-//W3C//DTD SVG 1.1//EN" "http://www.w3.org/Graphics/SVG/1.1/DTD/svg11.dtd">
<svg version="1.1" id="Calque_1" xmlns="http://www.w3.org/2000/svg" xmlns:xlink="http://www.w3.org/1999/xlink" x="0px" y="0px"  width="300px" height="150px" viewBox="0 0 100.3 48.1" enable-background="new 0 0 100.3 48.1" xml:space="preserve">
  <g>
    <path fill="#1D1D1B"
          d="M21.1,16.3c-3.5,0-6.4,2.9-6.4,6.5c0,0.1,0,0.2,0,0.3v12.2h1.6v-8.2c1.2,1.4,2.9,2.2,4.8,2.2
             c3.5,0,6.4-2.9,6.4-6.5C27.5,19.2,24.6,16.3,21.1,16.3
             M21.1,27.9c-2.6,0-4.8-2.3-4.8-5c0-2.8,2.1-5,4.8-5c2.6,0,4.8,2.3,4.8,5
             C25.9,25.6,23.7,27.9,21.1,27.9"/>
    <path fill="#1D1D1B"
          d="M21.1,16.3c-3.5,0-6.4,2.9-6.4,6.5c0,0.1,0,0.2,0,0.3v12.2h1.6v-8.2c1.2,1.4,2.9,2.2,4.8,2.2
             c3.5,0,6.4-2.9,6.4-6.5C27.5,19.2,24.6,16.3,21.1,16.3
             M21.1,27.9c-2.6,0-4.8-2.3-4.8-5c0-2.8,2.1-5,4.8-5c2.6,0,4.8,2.3,4.8,5
             C25.9,25.6,23.7,27.9,21.1,27.9"/>
    <path fill="#1D1D1B"
          d="M99.2,22l-10.8,2.9c0.4,1.3,1.2,2.2,2.3,2.8c1.1,0.6,2.2,0.7,3.5,0.4c0.9-0.2,1.6-0.7,2.2-1.3
             c0.6-0.7,1-1.5,1.2-2.4l1.7-0.5c-0.2,1.5-0.7,2.7-1.5,3.7c-0.8,1-1.9,1.6-3.2,2c-1.7,0.5-3.4,0.2-4.9-0.7c-1.5-0.9-2.5-2.3-3-4
             c-0.5-1.8-0.3-3.5,0.6-5c0.9-1.5,2.2-2.5,4.1-3c1.8-0.5,3.4-0.2,4.9,0.7c1.5,0.9,2.5,2.4,3,4.4L99.2,22z
             M97.2,21.1
             c-0.6-1.3-1.4-2.1-2.4-2.6c-1-0.5-2.1-0.5-3.3-0.2c-1.2,0.3-2.1,0.9-2.7,1.9c-0.6,0.9-0.9,2-0.7,3.3L97.2,21.1z"/>
    <path fill="#1D1D1B"
          d="M99.2,22l-10.8,2.9c0.4,1.3,1.2,2.2,2.3,2.8c1.1,0.6,2.2,0.7,3.5,0.4c0.9-0.2,1.6-0.7,2.2-1.3
             c0.6-0.7,1-1.5,1.2-2.4l1.7-0.5c-0.2,1.5-0.7,2.7-1.5,3.7c-0.8,1-1.9,1.6-3.2,2c-1.7,0.5-3.4,0.2-4.9-0.7c-1.5-0.9-2.5-2.3-3-4
             c-0.5-1.8-0.3-3.5,0.6-5c0.9-1.5,2.2-2.5,4.1-3c1.8-0.5,3.4-0.2,4.9,0.7c1.5,0.9,2.5,2.4,3,4.4L99.2,22z
             M97.2,21.1
             c-0.6-1.3-1.4-2.1-2.4-2.6c-1-0.5-2.1-0.5-3.3-0.2c-1.2,0.3-2.1,0.9-2.7,1.9c-0.6,0.9-0.9,2-0.7,3.3L97.2,21.1z"/>
    <path fill="#1D1D1B"
          d="M1,22.9c0-1.8,0.6-3.4,1.9-4.7c1.3-1.3,2.7-1.9,4.4-1.9c1.8,0,3.3,0.6,4.6,1.9c1.3,1.3,1.9,2.8,1.9,4.5
             c0,1.8-0.6,3.4-1.9,4.7c-1.2,1.3-2.7,2-4.5,1.9c-1.8,0-3.3-0.7-4.6-1.9C1.6,26.2,1,24.7,1,22.9
             M2.7,22.9c0,1.4,0.4,2.6,1.4,3.6
             c0.9,1,2,1.5,3.4,1.5c1.3,0,2.4-0.5,3.4-1.4c0.9-1,1.4-2.2,1.4-3.6c0-1.5-0.4-2.7-1.4-3.6c-0.9-0.9-2.1-1.4-3.5-1.4
             c-1.3,0-2.3,0.5-3.3,1.4C3.1,20.2,2.7,21.4,2.7,22.9"/>
    <path fill="#1D1D1B"
          d="M1,22.9c0-1.8,0.6-3.4,1.9-4.7c1.3-1.3,2.7-1.9,4.4-1.9c1.8,0,3.3,0.6,4.6,1.9c1.3,1.3,1.9,2.8,1.9,4.5
             c0,1.8-0.6,3.4-1.9,4.7c-1.2,1.3-2.7,2-4.5,1.9c-1.8,0-3.3-0.7-4.6-1.9C1.6,26.2,1,24.7,1,22.9
             M2.7,22.9c0,1.4,0.4,2.6,1.4,3.6
             c0.9,1,2,1.5,3.4,1.5c1.3,0,2.4-0.5,3.4-1.4c0.9-1,1.4-2.2,1.4-3.6c0-1.5-0.4-2.7-1.4-3.6c-0.9-0.9-2.1-1.4-3.5-1.4
             c-1.3,0-2.3,0.5-3.3,1.4C3.1,20.2,2.7,21.4,2.7,22.9"/>
    <path fill="#1D1D1B"
          d="M41.1,21.8l-10.8,2.9c0.4,1.3,1.2,2.2,2.3,2.8c1.1,0.6,2.2,0.7,3.5,0.4c0.9-0.2,1.6-0.7,2.2-1.3
             c0.6-0.7,1-1.5,1.2-2.4l1.7-0.5c-0.2,1.5-0.7,2.7-1.5,3.7c-0.8,1-1.9,1.6-3.2,2c-1.7,0.5-3.4,0.2-4.9-0.7c-1.5-0.9-2.5-2.3-3-4
             c-0.5-1.8-0.3-3.5,0.6-5c0.9-1.5,2.2-2.5,4.1-3c1.8-0.5,3.4-0.2,4.9,0.7c1.5,0.9,2.5,2.4,3,4.4L41.1,21.8z
             M39,20.9
             c-0.6-1.3-1.4-2.1-2.4-2.6c-1-0.5-2.1-0.5-3.3-0.2c-1.2,0.3-2.1,0.9-2.7,1.9c-0.6,0.9-0.9,2-0.7,3.3L39,20.9z"/>
    <path fill="#1D1D1B"
          d="M41.1,21.8l-10.8,2.9c0.4,1.3,1.2,2.2,2.3,2.8c1.1,0.6,2.2,0.7,3.5,0.4c0.9-0.2,1.6-0.7,2.2-1.3
             c0.6-0.7,1-1.5,1.2-2.4l1.7-0.5c-0.2,1.5-0.7,2.7-1.5,3.7c-0.8,1-1.9,1.6-3.2,2c-1.7,0.5-3.4,0.2-4.9-0.7c-1.5-0.9-2.5-2.3-3-4
             c-0.5-1.8-0.3-3.5,0.6-5c0.9-1.5,2.2-2.5,4.1-3c1.8-0.5,3.4-0.2,4.9,0.7c1.5,0.9,2.5,2.4,3,4.4L41.1,21.8z
             M39,20.9
             c-0.6-1.3-1.4-2.1-2.4-2.6c-1-0.5-2.1-0.5-3.3-0.2c-1.2,0.3-2.1,0.9-2.7,1.9c-0.6,0.9-0.9,2-0.7,3.3L39,20.9z"/>
    <path fill="#1D1D1B"
          d="M56.9,29.2l-1.5,0l0-11l-1.7,0l0-1.4l1.6,0l0-0.3c0-1.3,0.3-2.3,1-2.9c0.7-0.6,1.7-0.9,3.1-0.9h0.1l0,1.4
             c-1,0-1.6,0.2-2,0.6c-0.4,0.4-0.6,1-0.6,1.9l0,0.3l2.6,0l0,1.4l-2.6,0L56.9,29.2z"/>
    <path fill="#1D1D1B"
          d="M56.9,29.2l-1.5,0l0-11l-1.7,0l0-1.4l1.6,0l0-0.3c0-1.3,0.3-2.3,1-2.9c0.7-0.6,1.7-0.9,3.1-0.9h0.1l0,1.4
             c-1,0-1.6,0.2-2,0.6c-0.4,0.4-0.6,1-0.6,1.9l0,0.3l2.6,0l0,1.4l-2.6,0L56.9,29.2z"/>
    <path fill="#1D1D1B"
          d="M83.7,20.7c-0.5-0.9-1.1-1.6-1.8-2c-0.7-0.4-1.5-0.7-2.5-0.7c-1.3,0-2.4,0.5-3.3,1.4
             c-0.9,1-1.3,2.2-1.3,3.6c0,1.4,0.4,2.6,1.3,3.6c0.9,1,2,1.4,3.3,1.4c1,0,1.8-0.2,2.5-0.7c0.7-0.5,1.3-1.1,1.7-2l1.8,0
             c-0.5,1.3-1.2,2.4-2.3,3.1c-1,0.7-2.2,1.1-3.6,1.1c-1.8,0-3.3-0.6-4.5-1.9c-1.2-1.3-1.8-2.8-1.8-4.6c0-1.8,0.6-3.4,1.9-4.7
             c1.3-1.3,2.8-1.9,4.6-1.9c1.3,0,2.5,0.4,3.6,1.1c1,0.7,1.8,1.8,2.3,3.1L83.7,20.7z"/>
    <path fill="#1D1D1B"
          d="M83.7,20.7c-0.5-0.9-1.1-1.6-1.8-2c-0.7-0.4-1.5-0.7-2.5-0.7c-1.3,0-2.4,0.5-3.3,1.4
             c-0.9,1-1.3,2.2-1.3,3.6c0,1.4,0.4,2.6,1.3,3.6c0.9,1,2,1.4,3.3,1.4c1,0,1.8-0.2,2.5-0.7c0.7-0.5,1.3-1.1,1.7-2l1.8,0
             c-0.5,1.3-1.2,2.4-2.3,3.1c-1,0.7-2.2,1.1-3.6,1.1c-1.8,0-3.3-0.6-4.5-1.9c-1.2-1.3-1.8-2.8-1.8-4.6c0-1.8,0.6-3.4,1.9-4.7
             c1.3-1.3,2.8-1.9,4.6-1.9c1.3,0,2.5,0.4,3.6,1.1c1,0.7,1.8,1.8,2.3,3.1L83.7,20.7z"/>
    <path fill="#1D1D1B"
          d="M72.1,22.7c0-3.6-2.8-6.5-6.4-6.5c-3.5,0-6.4,2.9-6.4,6.5c0,3.6,2.8,6.5,6.4,6.5c1.9,0,3.6-0.9,4.8-2.3v2.2
             h1.6v-6.3C72.1,22.9,72.1,22.8,72.1,22.7
             M65.8,27.7c-2.6,0-4.8-2.3-4.8-5s2.1-5,4.8-5c2.6,0,4.8,2.3,4.8,5S68.4,27.7,65.8,27.7"/>
    <path fill="#1D1D1B"
          d="M72.1,22.7c0-3.6-2.8-6.5-6.4-6.5c-3.5,0-6.4,2.9-6.4,6.5c0,3.6,2.8,6.5,6.4,6.5c1.9,0,3.6-0.9,4.8-2.3v2.2
             h1.6v-6.3C72.1,22.9,72.1,22.8,72.1,22.7
             M65.8,27.7c-2.6,0-4.8-2.3-4.8-5s2.1-5,4.8-5c2.6,0,4.8,2.3,4.8,5S68.4,27.7,65.8,27.7"/>
    <path fill="#1D1D1B"
          d="M47.6,16.6c-2.9,0-5.2,2.4-5.2,5.3V28v0.1v1.1h1.6v-1.1V28v-6.1c0-2.2,1.6-3.9,3.7-3.9c2,0,3.7,1.8,3.7,3.9
             V28v0.1v1.1h1.6v-1.1V28v-6.2C52.8,18.9,50.5,16.6,47.6,16.6"/>
    <path fill="#1D1D1B"
          d="M47.6,16.6c-2.9,0-5.2,2.4-5.2,5.3V28v0.1v1.1h1.6v-1.1V28v-6.1c0-2.2,1.6-3.9,3.7-3.9c2,0,3.7,1.8,3.7,3.9
             V28v0.1v1.1h1.6v-1.1V28v-6.2C52.8,18.9,50.5,16.6,47.6,16.6"/>
    <rect x="43.2" y="32.9" fill="#1D1D1B" width="0.5" height="2.5"/>
    <rect x="43.2" y="32.9" fill="#1D1D1B" width="0.5" height="2.5"/>
    <polygon fill="#1D1D1B" points="51,35.4 50,33.9 50,35.4 49.5,35.4 49.5,32.9 50,32.9 51,34.4 51,32.9 51.5,32.9 51.5,35.4  "/>
    <polygon fill="#1D1D1B" points="51,35.4 50,33.9 50,35.4 49.5,35.4 49.5,32.9 50,32.9 51,34.4 51,32.9 51.5,32.9 51.5,35.4  "/>
    <polygon fill="#1D1D1B" points="58.3,33.3 58.3,35.4 57.8,35.4 57.8,33.3 57.2,33.3 57.2,32.9 59,32.9 59,33.3  "/>
    <polygon fill="#1D1D1B" points="58.3,33.3 58.3,35.4 57.8,35.4 57.8,33.3 57.2,33.3 57.2,32.9 59,32.9 59,33.3  "/>
    <polygon fill="#1D1D1B" points="64.7,35.4 64.7,32.9 66.3,32.9
                                    66.3,33.3 65.2,33.3 65.2,33.9 66.2,33.9 66.2,34.4 65.2,34.4 65.2,35
                                    66.3,35 66.3,35.4 "/>
    <polygon fill="#1D1D1B" points="64.7,35.4 64.7,32.9 66.3,32.9
                                    66.3,33.3 65.2,33.3 65.2,33.9 66.2,33.9 66.2,34.4 65.2,34.4 65.2,35
                                    66.3,35 66.3,35.4 "/>
    <path fill="#1D1D1B"
          d="M73.5,35.4l-0.5-1h-0.4v1h-0.5v-2.5h1c0.5,0,0.8,0.3,0.8,0.8c0,0.4-0.2,0.6-0.5,0.7l0.6,1.1H73.5z
             M73.1,33.3h-0.5V34h0.5c0.2,0,0.4-0.1,0.4-0.3C73.4,33.5,73.3,33.3,73.1,33.3"/>
    <path fill="#1D1D1B"
          d="M73.5,35.4l-0.5-1h-0.4v1h-0.5v-2.5h1c0.5,0,0.8,0.3,0.8,0.8c0,0.4-0.2,0.6-0.5,0.7l0.6,1.1H73.5z
             M73.1,33.3h-0.5V34h0.5c0.2,0,0.4-0.1,0.4-0.3C73.4,33.5,73.3,33.3,73.1,33.3"/>
    <polygon fill="#1D1D1B" points="81.2,35.4 80.2,33.9 80.2,35.4 79.7,35.4 79.7,32.9 80.2,32.9 81.2,34.4 81.2,32.9 81.7,32.9   81.7,35.4  "/>
    <polygon fill="#1D1D1B" points="81.2,35.4 80.2,33.9 80.2,35.4 79.7,35.4 79.7,32.9 80.2,32.9 81.2,34.4 81.2,32.9 81.7,32.9   81.7,35.4  "/>
    <polygon fill="#1D1D1B" points="87.6,35.4 87.6,32.9 89.2,32.9 89.2,33.3 88,33.3 88,33.9 89,33.9 89,34.4 88,34.4 88,35 89.2,35   89.2,35.4  "/>
    <polygon fill="#1D1D1B" points="87.6,35.4 87.6,32.9 89.2,32.9 89.2,33.3 88,33.3 88,33.9 89,33.9 89,34.4 88,34.4 88,35 89.2,35   89.2,35.4  "/>
    <polygon fill="#1D1D1B" points="96,33.3 96,35.4 95.5,35.4 95.5,33.3 94.8,33.3 94.8,32.9 96.6,32.9 96.6,33.3  "/>
    <polygon fill="#1D1D1B" points="96,33.3 96,35.4 95.5,35.4 95.5,33.3 94.8,33.3 94.8,32.9 96.6,32.9 96.6,33.3  "/>
  </g>
</svg>
